# xmcd
#
# Track frame offsets:
#	150
#	18451
#	31757
#	49446
#	60307
#	72320
#	91388
#	108041
#	120235
#	123532
#	143163
#	158407
#	164078
#	176964
#
# Disc length: 2555 seconds
#
# Revision: 0
# Processed by: cddbd v1.5.2PL0 Copyright (c) Steve Scherf et al.
# Submitted via: EasyCDDAExtractor 16.0.6.1
#
DISCID=b809f90e
DTITLE=Συλλογικός δίσκος - Στης καρδιάς μου τ' ανοιχτά 2
DYEAR=2003
DGENRE=Έντεχνη
TTITLE0=Λιδάκης Μανώλης - Όλη η ζωή [Παντελής Θαλασσινός-Βαγγέλης Βελώνιας]
TTITLE1=Άνευ ερμηνευτού - Τ' ολόγλυκο φιλί [Παντελής Θαλασσινός]
TTITLE2=Υφαντής Δημήτρης - Ο βράχος, ο ξερόβραχος [Παντελής Θαλασσινός-Ανδρέας
TTITLE2=Νεοφυτίδης]
TTITLE3=Θαλασσινός Παντελής - Οι τεμπέληδες της εύφορης κοιλάδας [Δημ. Αποστολ
TTITLE3=άκης-Κ. Φασουλάς]
TTITLE4=Θαλασσινός Παντελής - Ωχ, αμάν [Βασίλης Καρόζας]
TTITLE5=Λιδάκης Μανώλης - Στα βήματά του να πατάς [Παντελής Θαλασσινός-Βαγγέλη
TTITLE5=ς Βελώνιας]
TTITLE6=Θαλασσινός Παντελής - Γι' αυτούς που λησμονήθηκαν [Παντελής Θαλασσινός
TTITLE6=Ηλίας Κατσούλης]
TTITLE7=Άνευ ερμηνευτού - Οδός Παγκάλου [Παντελής Θαλασσινός, ορχ/κό]
TTITLE8=Άνευ ερμηνευτού - Γκάϊντα [Παντελής Θαλασσινός, ορχ/κό]
TTITLE9=Αηδονίδης Χρόνης - Κατερίνα, καρδερίνα (Λιανοτράγουδο) [Παντ. Θαλασσιν
TTITLE9=ός-Χρυσ. Γελαγώτης]
TTITLE10=Αηδονίδης Χρόνης - Αχ, κορμί ζωγραφιστό [Παντελής Θαλασσινός-Ηλίας Κα
TTITLE10=τσούλης]
TTITLE11=Άνευ ερμηνευτού - Κανονάκι [Παντελής Θαλασσινός, ορχ/κό, σολ. Πάνος Δ
TTITLE11=ημητρακόπουλος]
TTITLE12=Θαλασσινός Παντελής - Ξενιτεμένο μου πουλί [Χρήστος Λεοντής-Γιώργος Α
TTITLE12=ρμένης]
TTITLE13=Θαλασσινός Παντελής - Το τραγουδάκι [Παντελής Θαλασσινός]
EXTD=
EXTT0=
EXTT1=
EXTT2=
EXTT3=
EXTT4=
EXTT5=
EXTT6=
EXTT7=
EXTT8=
EXTT9=
EXTT10=
EXTT11=
EXTT12=
EXTT13=
PLAYORDER=
